<svg xmlns="http://www.w3.org/2000/svg" viewBox="0 0 64 64" role="img" aria-label="LOCK-FIX">
  <defs>
    <linearGradient id="markBlue" x1="8" y1="7" x2="56" y2="57" gradientUnits="userSpaceOnUse">
      <stop offset="0" stop-color="#06265f"/>
      <stop offset="0.55" stop-color="#0b4db8"/>
      <stop offset="1" stop-color="#1680ff"/>
    </linearGradient>
  </defs>
  <path d="M32 5 55 15.2v17.6c0 16.2-9.3 26.8-23 31.1C18.3 59.6 9 49 9 32.8V15.2L32 5Z" fill="url(#markBlue)"/>
  <path d="M32 13.9 47.1 20.3v12.3c0 10.1-5.8 17.1-15.1 20.6-9.3-3.5-15.1-10.5-15.1-20.6V20.3L32 13.9Z" fill="#fff" fill-opacity=".94"/>
  <rect x="25" y="31.2" width="14" height="11.8" rx="1.4" fill="#082b76"/>
  <path d="M27.8 31.2v-4.6a4.2 4.2 0 0 1 8.4 0v4.6" fill="none" stroke="#082b76" stroke-width="3.2" stroke-linecap="round"/>
  <path d="M9 32h12.4l6.2 6.3M55 32H42.6l-6.2 6.3" fill="none" stroke="url(#markBlue)" stroke-width="4.1" stroke-linecap="round" stroke-linejoin="round"/>
</svg>
